<svg width="24" height="24" viewBox="0 0 24 24" fill="none" xmlns="http://www.w3.org/2000/svg">
<path d="M20.5983 9.81574L19.4142 10.9999L12.9999 4.58572L14.1842 3.40148C14.3626 3.22303 14.5363 3.04924 14.6955 2.91409C14.8704 2.76566 15.0923 2.60608 15.382 2.51195C15.7837 2.38143 16.2164 2.38143 16.6181 2.51195C16.9078 2.60608 17.1297 2.76565 17.3045 2.91409C17.4637 3.04926 17.6375 3.22308 17.816 3.40157L20.5983 6.18391C20.7768 6.36236 20.9506 6.53614 21.0858 6.69536C21.2342 6.87021 21.3938 7.0921 21.4879 7.38181C21.6184 7.7835 21.6184 8.2162 21.4879 8.61788C21.3938 8.9076 21.2342 9.12949 21.0858 9.30434C20.9507 9.46346 20.7767 9.63741 20.5983 9.81574Z" fill="white"/>
<path d="M7.42577 6.55237L11.091 5.50523L18.4946 12.9088L17.4475 16.5741C17.2921 17.1208 17.1553 17.6017 16.8804 18.0053C16.6395 18.3589 16.3257 18.6569 15.9601 18.8793C15.5429 19.1331 15.0556 19.2449 14.5016 19.372L3.50447 21.9097L8.58634 16.8278C8.86935 16.939 9.17755 17 9.50001 17C10.8807 17 12 15.8807 12 14.5C12 13.1193 10.8807 12 9.50001 12C8.11929 12 7.00001 13.1193 7.00001 14.5C7.00001 14.8224 7.06103 15.1305 7.17217 15.4135L2.09009 20.4957L4.62786 9.49821C4.75495 8.94429 4.86676 8.45694 5.12055 8.03974C5.34293 7.67417 5.64095 7.36039 5.99459 7.11949C6.39817 6.84456 6.87912 6.70781 7.42577 6.55237Z" fill="white"/>
</svg>
