<svg width="32" height="32" viewBox="0 0 32 32" fill="none" xmlns="http://www.w3.org/2000/svg">
<path d="M22.7071 16.7071L12.7071 26.7071C12.6142 26.8 12.5039 26.8737 12.3825 26.924C12.2611 26.9743 12.131 27.0001 11.9996 27.0001C11.8682 27.0001 11.7381 26.9743 11.6167 26.924C11.4953 26.8737 11.385 26.8 11.2921 26.7071C11.1992 26.6142 11.1255 26.5039 11.0752 26.3825C11.0249 26.2611 10.999 26.131 10.999 25.9996C10.999 25.8682 11.0249 25.7381 11.0752 25.6167C11.1255 25.4953 11.1992 25.385 11.2921 25.2921L20.5858 15.9996L11.2921 6.70708C11.1044 6.51944 10.999 6.26494 10.999 5.99958C10.999 5.73422 11.1044 5.47972 11.2921 5.29208C11.4797 5.10444 11.7342 4.99902 11.9996 4.99902C12.2649 4.99902 12.5194 5.10444 12.7071 5.29208L22.7071 15.2921C22.8001 15.385 22.8738 15.4952 22.9241 15.6166C22.9745 15.738 23.0004 15.8682 23.0004 15.9996C23.0004 16.131 22.9745 16.2611 22.9241 16.3825C22.8738 16.5039 22.8001 16.6142 22.7071 16.7071Z" fill="black"/>
</svg>
