<svg width="32" height="32" viewBox="0 0 32 32" fill="none" xmlns="http://www.w3.org/2000/svg">
<path d="M30.4142 10.17L21.8292 1.58497C21.6435 1.39921 21.423 1.25185 21.1803 1.15131C20.9376 1.05077 20.6775 0.999023 20.4148 0.999023C20.1521 0.999023 19.892 1.05077 19.6493 1.15131C19.4067 1.25185 19.1862 1.39921 19.0004 1.58497L15.4454 5.13997L8.19544 7.85997C7.866 7.98255 7.57469 8.18979 7.35085 8.46081C7.12701 8.73183 6.97856 9.05706 6.92044 9.40372L4.32419 24.9787C4.30678 25.0832 4.32298 25.1904 4.37044 25.2851C4.4179 25.3797 4.49417 25.4568 4.58828 25.5053C4.68238 25.5539 4.78946 25.5712 4.89408 25.555C4.9987 25.5388 5.09547 25.4897 5.17044 25.415L12.2954 18.29C12.0697 17.8203 11.971 17.2997 12.0092 16.78C12.0557 16.1406 12.3057 15.533 12.7227 15.0461C13.1397 14.5592 13.7017 14.2187 14.3263 14.0744C14.9509 13.9302 15.6052 13.9898 16.1935 14.2446C16.7817 14.4993 17.2729 14.9358 17.595 15.49C17.9172 16.0442 18.0533 16.6871 17.9834 17.3243C17.9136 17.9615 17.6415 18.5596 17.207 19.0309C16.7725 19.5023 16.1984 19.822 15.5689 19.9433C14.9395 20.0646 14.2877 19.9811 13.7092 19.705L6.58419 26.83C6.50943 26.9049 6.4604 27.0017 6.44416 27.1063C6.42792 27.2109 6.4453 27.318 6.49382 27.4121C6.54233 27.5062 6.61946 27.5825 6.7141 27.63C6.80874 27.6774 6.916 27.6936 7.02044 27.6762L22.5967 25.08C22.9428 25.0223 23.2676 24.8746 23.5386 24.6517C23.8096 24.4288 24.0171 24.1385 24.1404 23.81L26.8617 16.5512L30.4142 13C30.6 12.8142 30.7473 12.5937 30.8479 12.3511C30.9484 12.1084 31.0001 11.8483 31.0001 11.5856C31.0001 11.3229 30.9484 11.0628 30.8479 10.8201C30.7473 10.5774 30.6 10.3569 30.4142 10.1712V10.17ZM26.0004 14.585L17.4154 5.99997L20.4154 2.99997L29.0004 11.585L26.0004 14.585Z" fill="#616161"/>
</svg>
