<svg width="32" height="32" viewBox="0 0 32 32" fill="none" xmlns="http://www.w3.org/2000/svg">
<path d="M30.0002 19.4886C29.9952 19.2656 29.953 19.0451 29.8752 18.8361L27.4927 12.3098C27.3092 11.815 26.9375 11.4127 26.4587 11.1908C25.9798 10.9688 25.4327 10.9451 24.9365 11.1248L16.4602 14.1961L17.9702 5.57108C18.0637 5.04911 17.9461 4.51137 17.6433 4.07608C17.3404 3.64079 16.8771 3.34359 16.3552 3.24983L9.52145 2.03108C9.2631 1.98565 8.99833 1.99169 8.74232 2.04884C8.48631 2.10599 8.24411 2.21313 8.0296 2.36411C7.8151 2.51508 7.63252 2.70693 7.49233 2.92864C7.35215 3.15035 7.25712 3.39755 7.2127 3.65608L4.0877 21.5461C3.94483 22.3348 3.97683 23.1453 4.18142 23.9204C4.38601 24.6954 4.75822 25.4161 5.27177 26.0316C5.78532 26.6471 6.4277 27.1423 7.15357 27.4824C7.87944 27.8225 8.67111 27.9991 9.4727 27.9998H28.0002C28.5306 27.9998 29.0393 27.7891 29.4144 27.414C29.7895 27.039 30.0002 26.5303 30.0002 25.9998V19.4886ZM9.5002 24.4998C9.10464 24.4998 8.71796 24.3825 8.38906 24.1628C8.06016 23.943 7.80382 23.6306 7.65244 23.2652C7.50107 22.8997 7.46146 22.4976 7.53863 22.1096C7.6158 21.7217 7.80628 21.3653 8.08599 21.0856C8.36569 20.8059 8.72206 20.6154 9.11002 20.5383C9.49798 20.4611 9.90012 20.5007 10.2656 20.6521C10.631 20.8034 10.9434 21.0598 11.1631 21.3887C11.3829 21.7176 11.5002 22.1043 11.5002 22.4998C11.5002 23.0303 11.2895 23.539 10.9144 23.914C10.5393 24.2891 10.0306 24.4998 9.5002 24.4998ZM14.8402 23.4523L16.0627 16.4623L25.6152 12.9998L28.0002 19.5136L14.5977 24.3748C14.7046 24.0748 14.7857 23.7662 14.8402 23.4523ZM28.0002 25.9998H15.9677L28.0002 21.6386V25.9998Z" fill="#616161"/>
</svg>
